<svg width="340" height="340" viewBox="0 0 340 340" fill="none" xmlns="http://www.w3.org/2000/svg">
<path d="M113 7H306.225C321.013 7 333 18.9846 333 33.769V60H139.506L113 7Z" fill="white"/>
<path d="M113 7H306.225C321.013 7 333 18.9846 333 33.769V60H139.506L113 7Z" fill="#F6BD61"/>
<path d="M139.927 60.1818L113.341 7H33.9742C19.0771 7 7 19.0796 7 33.9798V241H334V60.1818H139.927Z" fill="white"/>
<path d="M130.577 283.312V280H210.423V283.312C210.423 296.119 220.85 306.5 233.712 306.5C246.573 306.5 257 316.881 257 329.688V333H84V329.688C84 316.881 94.4266 306.5 107.288 306.5C120.15 306.5 130.577 296.119 130.577 283.312Z" fill="#84A59E"/>
<path d="M334 240H7V253.333C7 268.061 18.9029 280 33.5854 280H307.415C322.097 280 334 268.061 334 253.333V240Z" fill="#3E5F58"/>
<path fill-rule="evenodd" clip-rule="evenodd" d="M112.891 0H306.527C324.984 0 340 15.0158 340 33.4727V253.672C340 271.98 325.105 286.875 306.797 286.875H216.818C218.361 294.443 225.069 300.156 233.086 300.156C249.563 300.156 262.969 313.562 262.969 330.039V333.359C262.969 337.026 259.995 340 256.328 340H83.6719C80.0043 340 77.0312 337.026 77.0312 333.359V330.039C77.0312 313.562 90.4367 300.156 106.914 300.156C114.931 300.156 121.639 294.443 123.182 286.875H33.2031C14.8949 286.875 0 271.98 0 253.672V33.5916C0 15.0689 15.0689 0 33.5916 0H112.891ZM326.719 66.4062H13.2812V233.75H326.719V66.4062ZM306.527 13.2812C317.66 13.2812 326.719 22.3397 326.719 33.4727V53.125H143.557L123.635 13.2812H306.527ZM108.787 13.2812H33.5916C22.3929 13.2812 13.2812 22.3929 13.2812 33.5916V53.125H128.709L122.068 39.8438H59.7656C56.1066 39.8438 53.125 36.8621 53.125 33.2031C53.125 29.5441 56.1066 26.5625 59.7656 26.5625H115.427L108.787 13.2812ZM208.259 300.156H184.277C180.618 300.156 177.637 303.138 177.637 306.797C177.637 310.456 180.618 313.438 184.277 313.438H233.086C241.103 313.438 247.812 319.151 249.354 326.719H90.6459C92.1885 319.151 98.8968 313.438 106.914 313.438C122.269 313.438 134.957 301.796 136.614 286.875H203.386C203.928 291.751 205.654 296.272 208.259 300.156ZM306.797 273.594C317.782 273.594 326.719 264.657 326.719 253.672V247.031H13.2812V253.672C13.2812 264.657 22.2182 273.594 33.2031 273.594H130.156H209.844H306.797Z" fill="#111827"/>
<path d="M306.797 39.8438C310.462 39.8438 313.438 36.8687 313.438 33.2031C313.438 29.5368 310.462 26.5625 306.797 26.5625C303.131 26.5625 300.156 29.5368 300.156 33.2031C300.156 36.8687 303.131 39.8438 306.797 39.8438Z" fill="#111827"/>
<path d="M280.234 39.8438C283.9 39.8438 286.875 36.8687 286.875 33.2031C286.875 29.5368 283.9 26.5625 280.234 26.5625C276.568 26.5625 273.594 29.5368 273.594 33.2031C273.594 36.8687 276.568 39.8438 280.234 39.8438Z" fill="#111827"/>
<path d="M253.672 39.8438C257.337 39.8438 260.312 36.8687 260.312 33.2031C260.312 29.5368 257.337 26.5625 253.672 26.5625C250.006 26.5625 247.031 29.5368 247.031 33.2031C247.031 36.8687 250.006 39.8438 253.672 39.8438Z" fill="#111827"/>
<path d="M157.715 313.438C161.374 313.438 164.355 310.456 164.355 306.797C164.355 303.138 161.374 300.156 157.715 300.156C154.056 300.156 151.074 303.138 151.074 306.797C151.074 310.456 154.056 313.438 157.715 313.438Z" fill="#111827"/>
<path d="M33.2031 39.8438C36.8621 39.8438 39.8438 36.8621 39.8438 33.2031C39.8438 29.5441 36.8621 26.5625 33.2031 26.5625C29.5441 26.5625 26.5625 29.5441 26.5625 33.2031C26.5625 36.8621 29.5441 39.8438 33.2031 39.8438Z" fill="#111827"/>
</svg>
